<svg width="18" height="18" viewBox="0 0 18 18" fill="none" xmlns="http://www.w3.org/2000/svg">
<path d="M16.5421 17.577L10.2613 11.296C9.76131 11.7088 9.18631 12.0319 8.53631 12.2653C7.88631 12.4986 7.21389 12.6153 6.51906 12.6153C4.80989 12.6153 3.36339 12.0235 2.17956 10.84C0.995725 9.6565 0.403809 8.21033 0.403809 6.5015C0.403809 4.79283 0.995558 3.34617 2.17906 2.1615C3.36256 0.977001 4.80873 0.38475 6.51756 0.38475C8.22623 0.38475 9.67289 0.976666 10.8576 2.1605C12.0421 3.34433 12.6343 4.79083 12.6343 6.5C12.6343 7.21417 12.5145 7.89625 12.2748 8.54625C12.035 9.19625 11.7151 9.76158 11.3151 10.2423L17.5958 16.523L16.5421 17.577ZM6.51906 11.1155C7.80756 11.1155 8.89889 10.6683 9.79306 9.774C10.6874 8.87983 11.1346 7.7885 11.1346 6.5C11.1346 5.2115 10.6874 4.12017 9.79306 3.226C8.89889 2.33167 7.80756 1.8845 6.51906 1.8845C5.23056 1.8845 4.13923 2.33167 3.24506 3.226C2.35073 4.12017 1.90356 5.2115 1.90356 6.5C1.90356 7.7885 2.35073 8.87983 3.24506 9.774C4.13923 10.6683 5.23056 11.1155 6.51906 11.1155Z" fill="#4F4F4F"/>
</svg>
