<svg xmlns="http://www.w3.org/2000/svg" xmlns:xlink="http://www.w3.org/1999/xlink" width="256.561" height="33" viewBox="0 0 256.561 33">
  <defs>
    <clipPath id="clip-path">
      <rect id="Rectángulo_24501" data-name="Rectángulo 24501" width="32" height="32" transform="translate(119 1)" fill="#fff"/>
    </clipPath>
    <clipPath id="clip-path-2">
      <rect id="Rectángulo_24502" data-name="Rectángulo 24502" width="88.561" height="16" transform="translate(159 9)" fill="#fff"/>
    </clipPath>
  </defs>
  <g id="Grupo_46247" data-name="Grupo 46247" transform="translate(311 -215)">
    <g id="Grupo_46245" data-name="Grupo 46245" transform="translate(-302 215)" clip-path="url(#clip-path)">
      <path id="Trazado_100537" data-name="Trazado 100537" d="M129.629,1.924A10.5,10.5,0,0,0,126.4,17a10.5,10.5,0,0,0,3.239,15.069,16,16,0,0,1-.006-30.145Zm10.728,30.145A10.505,10.505,0,0,0,143.594,17a10.507,10.507,0,0,0-3.241-15.076,16,16,0,0,1,0,30.148ZM142.914,17a9.958,9.958,0,0,1-15.839,0,9.956,9.956,0,0,1,15.839,0ZM135,1a9.958,9.958,0,0,1,8.251,15.532,10.5,10.5,0,0,0-16.506,0A9.96,9.96,0,0,1,134.987,1Zm-8.254,16.464a10.5,10.5,0,0,0,16.506,0,9.958,9.958,0,1,1-16.506,0Z" fill="#fff" fill-rule="evenodd"/>
    </g>
    <g id="Grupo_46246" data-name="Grupo 46246" transform="translate(-302 215)" clip-path="url(#clip-path-2)">
      <path id="Trazado_100538" data-name="Trazado 100538" d="M168.94,21.479h-5.582l-1.049,3.114H159l5.406-15.152h3.578l5.365,15.152h-3.433Zm-.885-2.61-1.89-5.962-1.954,5.962Z" fill="#fff"/>
      <path id="Trazado_100539" data-name="Trazado 100539" d="M181.8,24.594h-6.528V9.441H181.8a7.956,7.956,0,0,1,2.344.33,5,5,0,0,1,2.58,1.923A6.736,6.736,0,0,1,187.8,14.14a11.731,11.731,0,0,1,.288,2.508,10.077,10.077,0,0,1-1.213,5.119A5.472,5.472,0,0,1,181.8,24.594Zm2.354-11.287a3.082,3.082,0,0,0-2.889-1.234h-2.919v9.889h2.919a3.154,3.154,0,0,0,3.126-2.209,7.82,7.82,0,0,0,.483-2.888A7.185,7.185,0,0,0,184.154,13.307Z" fill="#fff"/>
      <path id="Trazado_100540" data-name="Trazado 100540" d="M195.975,22.4a5.583,5.583,0,0,0,1.819-.246,1.759,1.759,0,0,0,1.327-1.759,1.294,1.294,0,0,0-.659-1.161,7.058,7.058,0,0,0-2.066-.71l-1.6-.359a10.114,10.114,0,0,1-3.269-1.162,3.693,3.693,0,0,1-1.533-3.279,4.38,4.38,0,0,1,1.481-3.382A6.256,6.256,0,0,1,195.821,9a6.609,6.609,0,0,1,4.086,1.269,4.532,4.532,0,0,1,1.774,3.686h-3.043a2.171,2.171,0,0,0-1.193-1.942,3.99,3.99,0,0,0-1.84-.38,3.431,3.431,0,0,0-1.952.493,1.571,1.571,0,0,0-.73,1.378,1.306,1.306,0,0,0,.718,1.213,8.823,8.823,0,0,0,1.975.627l2.611.626a6.774,6.774,0,0,1,2.59,1.1,3.707,3.707,0,0,1,1.356,3.095,4.368,4.368,0,0,1-1.587,3.448,6.656,6.656,0,0,1-4.487,1.373,7.281,7.281,0,0,1-4.657-1.352,4.491,4.491,0,0,1-1.7-3.716h3.021a3.1,3.1,0,0,0,.566,1.552A3.253,3.253,0,0,0,195.975,22.4Z" fill="#fff"/>
      <path id="Trazado_100541" data-name="Trazado 100541" d="M213.553,24.594V17.83h-5.92v6.764H204.5V9.441h3.135v5.778h5.92V9.441H216.7V24.594Z" fill="#fff"/>
      <path id="Trazado_100542" data-name="Trazado 100542" d="M228.685,18.755V9.441H231.9v9.314a7.793,7.793,0,0,1-.751,3.763q-1.4,2.468-5.334,2.467t-5.345-2.467a7.793,7.793,0,0,1-.751-3.763V9.441h3.217v9.314a5.254,5.254,0,0,0,.371,2.282,3.1,3.1,0,0,0,5.006,0A5.257,5.257,0,0,0,228.685,18.755Z" fill="#fff"/>
      <path id="Trazado_100543" data-name="Trazado 100543" d="M241.843,24.594h-6.867V9.441h7.36a4.686,4.686,0,0,1,3.948,1.614,3.842,3.842,0,0,1,.7,2.313,3.384,3.384,0,0,1-.7,2.232,3.629,3.629,0,0,1-1.152.863,3.375,3.375,0,0,1,1.753,1.336,4.007,4.007,0,0,1,.591,2.22,4.413,4.413,0,0,1-.678,2.415,4.191,4.191,0,0,1-2.8,1.954A10.572,10.572,0,0,1,241.843,24.594Zm-.073-6.671H238v4.039h3.722a3.655,3.655,0,0,0,1.552-.267,1.9,1.9,0,0,0,1.007-1.892,1.626,1.626,0,0,0-.976-1.624A3.923,3.923,0,0,0,241.77,17.923Zm1.574-2.889a1.418,1.418,0,0,0,.616-1.326,1.355,1.355,0,0,0-.823-1.4,5.817,5.817,0,0,0-1.809-.237H238v3.342h3.722A3.093,3.093,0,0,0,243.344,15.034Z" fill="#fff"/>
    </g>
    <line id="Línea_603" data-name="Línea 603" y2="32" transform="translate(-198.5 215)" fill="none" stroke="#fff" stroke-width="1"/>
    <g id="televisa-univision-color" transform="translate(-311 215)">
      <path id="Trazado_94958" data-name="Trazado 94958" d="M575.35,409.52a5.641,5.641,0,0,1,5.759-5.913,5.516,5.516,0,0,1,3.832,1.4,7.137,7.137,0,0,1,1.971,5.449h-8.058a2.473,2.473,0,0,0,2.518,2.452,1.862,1.862,0,0,0,1.862-1.116h3.482a4.56,4.56,0,0,1-1.883,2.649,5.925,5.925,0,0,1-3.5,1.03A5.666,5.666,0,0,1,575.35,409.52Zm7.948-1.18a2.166,2.166,0,0,0-2.124-2.188c-1.362,0-2.059.854-2.3,2.188Z" transform="translate(-565.259 -399.492)" fill="#fff"/>
      <path id="Trazado_94959" data-name="Trazado 94959" d="M711.35,358.28h3.612v15.656H711.35Z" transform="translate(-688.909 -358.28)" fill="#fff"/>
      <path id="Trazado_94960" data-name="Trazado 94960" d="M759.82,409.52a5.641,5.641,0,0,1,5.759-5.913,5.516,5.516,0,0,1,3.832,1.4,7.137,7.137,0,0,1,1.971,5.449h-8.058a2.473,2.473,0,0,0,2.518,2.452,1.862,1.862,0,0,0,1.862-1.116h3.484a4.56,4.56,0,0,1-1.882,2.649,5.925,5.925,0,0,1-3.5,1.03A5.668,5.668,0,0,1,759.82,409.52Zm7.948-1.18a2.168,2.168,0,0,0-2.12-2.192c-1.362,0-2.058.854-2.3,2.188Z" transform="translate(-732.978 -399.492)" fill="#fff"/>
      <path id="Trazado_94961" data-name="Trazado 94961" d="M877,407.23h3.679l1.533,5.058c.328,1.119.611,2.255.611,2.255h.044s.284-1.139.611-2.255l1.554-5.058h3.57l-3.868,11.211h-3.854Z" transform="translate(-839.517 -402.785)" fill="#fff"/>
      <path id="Trazado_94962" data-name="Trazado 94962" d="M1008.67,358.28h3.571v2.89h-3.57Zm0,4.449h3.571v11.206h-3.57Z" transform="translate(-959.231 -358.28)" fill="#fff"/>
      <path id="Trazado_94963" data-name="Trazado 94963" d="M1054.49,411.511h3.372a1.812,1.812,0,0,0,2.058,1.664c1.073,0,1.752-.394,1.752-1.119,0-1.007-1.357-1.119-2.846-1.379-1.95-.329-4.029-.854-4.029-3.482,0-2.361,2.188-3.591,4.839-3.591,3.178,0,4.884,1.379,5.058,3.591h-3.284c-.132-1.007-.81-1.314-1.8-1.314-.876,0-1.554.329-1.554,1.029,0,.788,1.272.9,2.693,1.161,1.971.329,4.292.833,4.292,3.7,0,2.452-2.168,3.723-5.1,3.723C1056.657,415.5,1054.6,413.986,1054.49,411.511Z" transform="translate(-1000.891 -399.491)" fill="#fff"/>
      <path id="Trazado_94964" data-name="Trazado 94964" d="M1178.92,412.237c0-2.474,1.971-3.219,4.292-3.525,2.1-.264,2.847-.482,2.847-1.249,0-.727-.458-1.2-1.533-1.2-1.139,0-1.708.5-1.816,1.445h-3.285c.091-2.079,1.686-3.854,5.085-3.854a5.812,5.812,0,0,1,3.632.92,3.713,3.713,0,0,1,1.425,3.2v5.647c0,.9.091,1.4.394,1.6v.153h-3.46a3.134,3.134,0,0,1-.373-1.248h-.045a3.687,3.687,0,0,1-3.328,1.532C1180.518,415.652,1178.92,414.448,1178.92,412.237Zm7.225-.876v-1.336a8.61,8.61,0,0,1-1.839.591c-1.379.305-1.948.657-1.948,1.511,0,.9.656,1.249,1.533,1.249a2.038,2.038,0,0,0,2.255-2.015Z" transform="translate(-1114.022 -399.712)" fill="#fff"/>
      <path id="Trazado_94965" data-name="Trazado 94965" d="M468.774,362.1H464.22V358.81h13.028V362.1h-4.6v12.97h-3.875Z" transform="translate(-464.22 -358.762)" fill="#fff"/>
      <path id="Trazado_94966" data-name="Trazado 94966" d="M514.28,556.326V546.19h3.877v10.268c0,1.533.788,2.562,2.693,2.562a2.412,2.412,0,0,0,2.65-2.627v-10.2h3.875v10.136c0,3.612-2.167,5.8-6.525,5.8C516.469,562.129,514.28,559.983,514.28,556.326Z" transform="translate(-509.734 -529.126)" fill="#fff"/>
      <path id="Trazado_94967" data-name="Trazado 94967" d="M675.424,590.557h3.438v1.533h.062a3.932,3.932,0,0,1,3.46-1.862c2.452,0,3.9,1.752,3.9,4.248v7.292h-3.569V595.2c0-1.18-.591-1.992-1.753-1.992a2.092,2.092,0,0,0-1.97,2.361v6.2H675.42Z" transform="translate(-656.242 -569.166)" fill="#fff"/>
      <path id="Trazado_94968" data-name="Trazado 94968" d="M803.26,544.9h3.57v2.89h-3.57Zm0,4.449h3.57v11.206h-3.57Z" transform="translate(-772.473 -527.954)" fill="#fff"/>
      <path id="Trazado_94969" data-name="Trazado 94969" d="M846.42,593.85h3.68l1.533,5.058c.328,1.119.611,2.255.611,2.255h.044s.284-1.139.611-2.255l1.555-5.058h3.57l-3.875,11.211h-3.854Z" transform="translate(-811.714 -572.459)" fill="#fff"/>
      <path id="Trazado_94970" data-name="Trazado 94970" d="M978.08,544.9h3.572v2.89H978.08Zm0,4.449h3.572v11.206H978.08Z" transform="translate(-931.419 -527.954)" fill="#fff"/>
      <path id="Trazado_94971" data-name="Trazado 94971" d="M1023.9,598.131h3.369a1.81,1.81,0,0,0,2.057,1.664c1.074,0,1.752-.394,1.752-1.119,0-1.007-1.362-1.119-2.846-1.379-1.95-.329-4.029-.855-4.029-3.482,0-2.361,2.188-3.591,4.839-3.591,3.178,0,4.884,1.379,5.058,3.591h-3.28c-.132-1.008-.81-1.314-1.8-1.314-.876,0-1.554.329-1.554,1.029,0,.788,1.272.9,2.694,1.161,1.97.329,4.292.833,4.292,3.7,0,2.452-2.168,3.723-5.1,3.723C1026.067,602.117,1024.01,600.606,1023.9,598.131Z" transform="translate(-973.078 -569.165)" fill="#fff"/>
      <path id="Trazado_94972" data-name="Trazado 94972" d="M1148.09,544.9h3.569v2.89h-3.569Zm0,4.449h3.569v11.206h-3.569Z" transform="translate(-1085.991 -527.954)" fill="#fff"/>
      <path id="Trazado_94973" data-name="Trazado 94973" d="M1195.83,596.4a5.989,5.989,0,1,1,6,5.934A5.744,5.744,0,0,1,1195.83,596.4Zm8.365,0c0-2.035-.833-3.416-2.387-3.416s-2.361,1.379-2.361,3.416.81,3.394,2.361,3.394,2.391-1.357,2.391-3.394Z" transform="translate(-1129.396 -569.387)" fill="#fff"/>
      <path id="Trazado_94974" data-name="Trazado 94974" d="M1336.152,590.557h3.434v1.533h.066a3.933,3.933,0,0,1,3.46-1.862c2.452,0,3.9,1.752,3.9,4.248v7.292h-3.57V595.2c0-1.18-.591-1.992-1.752-1.992a2.092,2.092,0,0,0-1.97,2.361v6.2h-3.569Z" transform="translate(-1256.974 -569.166)" fill="#fff"/>
    </g>
  </g>
</svg>
